simulation
nRows=56
nColumns=15
endheader
time  TH_x TH_y TH_z SC_y  SC_z  SC_x  AC_y  AC_z  AC_x  GH_y  GH_z  GH_x  EL_x  PS_y
0.000000  0.000000  0.000000  0.000000  -30.813392  -0.339563  5.256548  53.621930  1.710824  -9.309778  27.981954  2.912333  0.750902  22.668474  122.008067
0.031313  0.000000  0.000000  0.000000  -30.821578  -0.410264  5.273277  53.578626  1.807324  -9.391792  28.076803  2.734548  0.700909  22.758091  122.037272
0.062626  0.000000  0.000000  0.000000  -30.813221  -0.487892  5.287192  53.497420  1.880593  -9.456843  28.181284  2.613623  0.667223  22.774083  122.043410
0.093939  0.000000  0.000000  0.000000  -30.797152  -0.569499  5.295794  53.392969  1.932765  -9.507436  28.263282  2.573048  0.655581  22.727262  122.034656
0.125253  0.000000  0.000000  0.000000  -30.782201  -0.652135  5.296583  53.279934  1.965971  -9.546074  28.290614  2.636271  0.671884  22.628440  122.019190
0.156566  0.000000  0.000000  0.000000  -30.777199  -0.732851  5.287060  53.172973  1.982342  -9.575264  28.230933  2.826655  0.722361  22.488427  122.005188
0.187879  0.000000  0.000000  0.000000  -30.790978  -0.808697  5.264726  53.086745  1.984011  -9.597510  28.051594  3.167434  0.813749  22.318036  122.000828
0.219192  0.000000  0.000000  0.000000  -30.832347  -0.876729  5.227096  53.035878  1.973120  -9.615323  27.719549  3.681592  0.953500  22.128073  122.014235
0.250505  0.000000  0.000000  0.000000  -30.904412  -0.935125  5.176209  53.025314  1.955106  -9.633156  27.222108  4.372000  1.145536  21.927595  122.037270
0.281818  0.000000  0.000000  0.000000  -30.996509  -0.984775  5.125011  53.036636  1.943353  -9.660140  26.596838  5.193180  1.384506  21.721444  122.022576
0.313131  0.000000  0.000000  0.000000  -31.095938  -1.026969  5.088062  53.047976  1.952416  -9.706100  25.888905  6.091874  1.665651  21.513843  121.917000
0.344444  0.000000  0.000000  0.000000  -31.190553  -1.063179  5.078443  53.040165  1.994679  -9.775721  25.137358  7.018360  1.984900  21.311130  121.688931
0.375758  0.000000  0.000000  0.000000  -31.272854  -1.096394  5.096752  53.016847  2.064152  -9.830229  24.327295  7.960085  2.325323  21.137587  121.488957
0.407071  0.000000  0.000000  0.000000  -31.337677  -1.130371  5.137309  52.993140  2.145601  -9.809001  23.417850  8.927184  2.652322  21.026514  121.559278
0.438384  0.000000  0.000000  0.000000  -31.379913  -1.168769  5.194329  52.984145  2.223935  -9.652032  22.371057  9.934987  2.916145  21.010745  122.138667
0.469697  0.000000  0.000000  0.000000  -31.396332  -1.209487  5.258823  52.999234  2.295592  -9.342892  21.196605  11.003547  3.085267  21.093610  123.237892
0.501010  0.000000  0.000000  0.000000  -31.386530  -1.241773  5.316989  53.039164  2.374349  -8.930648  19.971925  12.153534  3.179213  21.234087  124.524977
0.532323  0.000000  0.000000  0.000000  -31.350339  -1.254163  5.354628  53.103984  2.475411  -8.469772  18.777905  13.402827  3.234574  21.387492  125.639675
0.563636  0.000000  0.000000  0.000000  -31.289910  -1.236422  5.364642  53.192168  2.611111  -8.012364  17.679938  14.760628  3.297658  21.514822  126.291700
0.594949  0.000000  0.000000  0.000000  -31.218829  -1.184380  5.374899  53.294445  2.779636  -7.598880  16.680032  16.198566  3.400451  21.605008  126.535111
0.626263  0.000000  0.000000  0.000000  -31.154191  -1.095728  5.424008  53.399168  2.974830  -7.266192  15.758426  17.675630  3.579686  21.655567  126.529739
0.657576  0.000000  0.000000  0.000000  -31.112444  -0.968519  5.548680  53.495690  3.190599  -7.049264  14.890740  19.150791  3.883808  21.664387  126.432179
0.688889  0.000000  0.000000  0.000000  -31.096278  -0.808459  5.745309  53.594728  3.422163  -6.942512  14.037241  20.628875  4.331969  21.637209  126.329701
0.720202  0.000000  0.000000  0.000000  -31.095226  -0.628569  5.971744  53.727418  3.666001  -6.901584  13.147860  22.161875  4.897850  21.587287  126.243302
0.751515  0.000000  0.000000  0.000000  -31.098297  -0.442160  6.184303  53.925703  3.918649  -6.880587  12.175449  23.807803  5.537014  21.528167  126.191316
0.782828  0.000000  0.000000  0.000000  -31.097477  -0.259813  6.355450  54.206709  4.181579  -6.846147  11.096708  25.595710  6.203988  21.468124  126.182329
0.814141  0.000000  0.000000  0.000000  -31.093506  -0.084069  6.505142  54.543989  4.470801  -6.801718  9.948909  27.454014  6.894434  21.399916  126.196251
0.845455  0.000000  0.000000  0.000000  -31.088723  0.083997  6.662027  54.903119  4.804981  -6.757488  8.780831  29.290412  7.616929  21.313465  126.207745
0.876768  0.000000  0.000000  0.000000  -31.085194  0.243310  6.853310  55.252018  5.200268  -6.722808  7.638506  31.016428  8.383608  21.199415  126.193658
0.908081  0.000000  0.000000  0.000000  -31.082009  0.392758  7.090767  55.583642  5.645860  -6.698033  6.532201  32.609269  9.189790  21.056169  126.154228
0.939394  0.000000  0.000000  0.000000  -31.076456  0.531207  7.376818  55.906134  6.114604  -6.678065  5.451870  34.088195  10.014994  20.886837  126.103875
0.970707  0.000000  0.000000  0.000000  -31.065834  0.657543  7.713526  56.227674  6.579488  -6.657807  4.389294  35.474990  10.833712  20.694565  126.056975
1.002020  0.000000  0.000000  0.000000  -31.050802  0.772587  8.081828  56.539221  7.048602  -6.639456  3.331175  36.773061  11.652908  20.479663  126.004441
1.033333  0.000000  0.000000  0.000000  -31.038097  0.880657  8.424425  56.800583  7.593563  -6.638407  2.249189  37.946440  12.551086  20.237304  125.894732
1.064646  0.000000  0.000000  0.000000  -31.035098  0.986441  8.679990  56.968287  8.292674  -6.671450  1.108549  38.947884  13.625090  19.962126  125.671837
1.095960  0.000000  0.000000  0.000000  -31.047984  1.094640  8.806376  57.010734  9.201492  -6.748925  -0.115887  39.736148  14.948397  19.652705  125.297956
1.127273  0.000000  0.000000  0.000000  -31.075651  1.210037  8.877970  56.968496  10.237334  -6.842007  -1.378418  40.363499  16.411994  19.331594  124.845987
1.158586  0.000000  0.000000  0.000000  -31.114253  1.337450  9.012951  56.909260  11.265572  -6.907150  -2.605781  40.935630  17.829850  19.030349  124.430419
1.189899  0.000000  0.000000  0.000000  -31.160269  1.481530  9.326136  56.898986  12.155089  -6.901699  -3.729001  41.576404  19.015824  18.779839  124.162983
1.221212  0.000000  0.000000  0.000000  -31.219844  1.642105  9.830214  56.950837  12.881833  -6.810153  -4.717123  42.329762  19.910405  18.590007  124.071315
1.252525  0.000000  0.000000  0.000000  -31.310192  1.813475  10.420976  57.017542  13.544296  -6.648095  -5.579145  43.127350  20.604123  18.446841  124.086788
1.283838  0.000000  0.000000  0.000000  -31.449133  1.989638  10.987808  57.048522  14.247685  -6.432812  -6.327401  43.884904  21.203147  18.335020  124.135502
1.315152  0.000000  0.000000  0.000000  -31.644977  2.164396  11.466692  57.010027  15.053958  -6.191604  -6.980718  44.536303  21.797415  18.242027  124.159162
1.346465  0.000000  0.000000  0.000000  -31.871742  2.330840  11.961690  56.929021  15.869049  -5.987896  -7.569912  45.102847  22.386934  18.165469  124.155771
1.377778  0.000000  0.000000  0.000000  -32.095714  2.481899  12.614754  56.846152  16.563723  -5.893259  -8.128580  45.627058  22.949816  18.105237  124.136022
1.409091  0.000000  0.000000  0.000000  -32.285365  2.611887  13.542072  56.794586  17.029445  -5.963271  -8.688558  46.149167  23.465899  18.060944  124.110926
1.440404  0.000000  0.000000  0.000000  -32.439330  2.734199  14.504246  56.704165  17.443365  -6.032822  -9.248015  46.662577  23.945210  18.028399  124.095905
1.471717  0.000000  0.000000  0.000000  -32.578238  2.876140  15.002678  56.429421  18.190884  -5.775933  -9.780384  47.125198  24.420965  18.000633  124.109597
1.503030  0.000000  0.000000  0.000000  -32.723154  3.065213  14.534788  55.823807  19.660590  -4.864281  -10.258547  47.492952  24.927908  17.970640  124.170624
1.534343  0.000000  0.000000  0.000000  -32.883945  3.306320  12.967179  54.863119  21.942328  -3.223636  -10.669986  47.748317  25.475304  17.935943  124.280971
1.565657  0.000000  0.000000  0.000000  -33.045954  3.554898  10.974400  53.790907  24.472152  -1.335846  -11.035562  47.934961  26.016045  17.903985  124.406210
1.596970  0.000000  0.000000  0.000000  -33.191283  3.759839  9.337920  52.886151  26.599593  0.243653  -11.381845  48.106495  26.495960  17.883520  124.507092
1.628283  0.000000  0.000000  0.000000  -33.305380  3.877216  8.732881  52.389175  27.763368  1.036451  -11.729250  48.309473  26.866721  17.882072  124.549720
1.659596  0.000000  0.000000  0.000000  -33.398991  3.917377  9.030938  52.248194  28.076106  1.146175  -12.040118  48.525327  27.117386  17.897879  124.540635
1.690909  0.000000  0.000000  0.000000  -33.494417  3.915472  9.736605  52.277942  27.958376  0.942408  -12.249179  48.704724  27.253595  17.924933  124.504856
1.722222  0.000000  0.000000  0.000000  -33.613593  3.906426  10.357953  52.294811  27.827240  0.791612  -12.291953  48.798119  27.281666  17.957236  124.467245
